<svg width="572" height="774" viewBox="0 0 572 774" fill="none" xmlns="http://www.w3.org/2000/svg">
<g opacity="0.6">
<path d="M2.12891 199.145V35.2344" stroke="url(#paint0_linear_105001_31)" stroke-width="2" stroke-linecap="round" stroke-linejoin="round"/>
<path d="M2.12891 35.2324L34.1527 2.12695" stroke="white" stroke-width="2" stroke-linecap="round" stroke-linejoin="round"/>
<path d="M569.869 389.522V35.2344" stroke="url(#paint1_linear_105001_31)" stroke-width="2" stroke-linecap="round" stroke-linejoin="round"/>
<path d="M569.87 35.2324L537.846 2.12695" stroke="white" stroke-width="2" stroke-linecap="round" stroke-linejoin="round"/>
<path d="M537.846 2.12695H318.151V16.6372C318.151 17.9137 318.832 19.0626 319.939 19.7009L337.74 29.8708C337.74 29.8708 352.985 38.594 341.019 45.998C338.506 47.5725 335.568 48.3384 332.63 48.6363C326.71 49.232 314.403 51.5298 310.613 60.721C305.546 73.0185 302.096 81.8268 286.468 82.8055H285.616C269.987 81.8693 266.538 73.0185 261.47 60.721C257.68 51.4872 245.373 49.1894 239.454 48.6363C236.516 48.3384 233.577 47.5725 231.065 45.998C219.098 38.5514 234.344 29.8708 234.344 29.8708L252.144 19.7009C253.251 19.0626 253.933 17.9137 253.933 16.6372V2.12695H34.1523" stroke="white" stroke-width="2" stroke-linecap="round" stroke-linejoin="round"/>
<path d="M120.131 206.548C169.521 206.548 209.56 166.541 209.56 117.189C209.56 67.8375 169.521 27.8301 120.131 27.8301C70.7415 27.8301 30.7031 67.8375 30.7031 117.189C30.7031 166.541 70.7415 206.548 120.131 206.548Z" stroke="white" stroke-width="2" stroke-linecap="round" stroke-linejoin="round"/>
<path d="M448.418 206.548C497.808 206.548 537.847 166.541 537.847 117.189C537.847 67.8375 497.808 27.8301 448.418 27.8301C399.029 27.8301 358.99 67.8375 358.99 117.189C358.99 166.541 399.029 206.548 448.418 206.548Z" stroke="white" stroke-width="2" stroke-linecap="round" stroke-linejoin="round"/>
<path d="M509.187 246.758C500.415 262.63 491.812 278.587 482.784 294.331C468.093 320.075 453.06 345.649 438.241 371.307C418.95 404.711 399.701 438.114 380.495 471.517C364.228 499.814 348.088 528.196 331.864 556.536C321.771 574.11 311.678 591.684 301.373 609.13C300.479 610.62 300.649 611.854 300.479 613.258" stroke="white" stroke-width="2" stroke-linecap="round" stroke-linejoin="round"/>
<path d="M511.232 271.182C472.394 338.669 433.514 406.114 394.719 473.644C364.91 525.557 335.271 577.556 305.504 629.512C304.652 630.959 303.503 632.235 302.48 633.554" stroke="white" stroke-width="2" stroke-linecap="round" stroke-linejoin="round"/>
<path d="M511.232 301.562C464.985 381.858 418.695 462.196 372.448 542.492C349.111 582.959 325.86 623.468 302.523 663.978" stroke="white" stroke-width="2" stroke-linecap="round" stroke-linejoin="round"/>
<path d="M491.983 247.78C464.302 296.033 436.622 344.33 408.9 392.541C385.989 432.37 362.78 472.071 340.082 512.027C326.753 535.559 311.849 558.239 300.478 582.834" stroke="white" stroke-width="2" stroke-linecap="round" stroke-linejoin="round"/>
<path d="M474.736 246.758C456.169 279.821 437.815 313.011 418.95 345.946C398.935 380.839 378.409 415.434 358.267 450.284C339.572 482.623 321.09 515.048 302.566 547.473C301.671 549.047 301.203 550.834 300.521 552.536" stroke="white" stroke-width="2" stroke-linecap="round" stroke-linejoin="round"/>
<path d="M511.231 331.949C470.349 402.798 429.468 473.647 388.671 544.539C377.429 564.07 366.357 583.687 355.242 603.261" stroke="white" stroke-width="2" stroke-linecap="round" stroke-linejoin="round"/>
<path d="M457.532 247.779C436.581 284.544 415.884 321.479 394.677 358.074C364.484 410.158 333.951 462.028 303.588 514.027C302.907 515.176 302.864 516.708 302.523 518.069" stroke="white" stroke-width="2" stroke-linecap="round" stroke-linejoin="round"/>
<path d="M440.328 246.758C419.035 284.204 397.828 321.692 376.493 359.138C354.306 397.987 331.949 436.752 309.635 475.56C307.804 478.709 305.589 481.645 303.588 484.666" stroke="white" stroke-width="2" stroke-linecap="round" stroke-linejoin="round"/>
<path d="M432.193 589.09C424.74 602.579 417.458 616.11 409.878 629.514C397.955 650.577 385.903 671.513 373.809 692.491C366.655 704.916 359.373 717.256 352.176 729.596" stroke="white" stroke-width="2" stroke-linecap="round" stroke-linejoin="round"/>
<path d="M421.08 248.801C413.968 261.949 407.197 275.31 399.745 288.246C371.17 337.947 342.383 387.477 313.681 437.093C309.848 443.774 306.228 450.582 302.523 457.348" stroke="white" stroke-width="2" stroke-linecap="round" stroke-linejoin="round"/>
<path d="M416.011 526.324C389.352 572.876 362.652 619.47 335.994 666.022C324.794 685.554 313.679 705.17 302.564 724.744" stroke="white" stroke-width="2" stroke-linecap="round" stroke-linejoin="round"/>
<path d="M416.012 556.662C401.49 582.321 387.097 608.022 372.405 633.596C352.603 668.106 332.588 702.445 312.658 736.87" stroke="white" stroke-width="2" stroke-linecap="round" stroke-linejoin="round"/>
<path d="M168.807 273.1C202.576 332.502 236.346 391.862 270.116 451.265" stroke="white" stroke-width="2" stroke-linecap="round" stroke-linejoin="round"/>
<path d="M404.855 249.822C385.266 283.566 365.634 317.267 346.088 351.053C331.481 376.329 317.045 401.648 302.523 426.966" stroke="white" stroke-width="2" stroke-linecap="round" stroke-linejoin="round"/>
<path d="M126.221 258.927C154.582 309.224 182.944 359.478 211.39 409.732C212.157 411.093 213.179 413.178 214.158 414.71" stroke="white" stroke-width="2" stroke-linecap="round" stroke-linejoin="round"/>
<path d="M386.629 249.822C358.608 298.757 330.587 347.692 302.523 396.627" stroke="white" stroke-width="2" stroke-linecap="round" stroke-linejoin="round"/>
<path d="M103.949 250.799C131.629 299.393 159.352 347.988 187.032 396.582" stroke="white" stroke-width="2" stroke-linecap="round" stroke-linejoin="round"/>
<path d="M172.852 250.799C198.53 296.032 224.166 341.222 249.845 386.454" stroke="white" stroke-width="2" stroke-linecap="round" stroke-linejoin="round"/>
<path d="M195.123 258.927C218.758 300.756 242.392 342.627 266.027 384.456" stroke="white" stroke-width="2" stroke-linecap="round" stroke-linejoin="round"/>
<path d="M369.381 248.801C358.778 271.608 344.682 292.459 332.758 314.543C323.262 332.117 312.616 349.053 302.48 366.244" stroke="white" stroke-width="2" stroke-linecap="round" stroke-linejoin="round"/>
<path d="M511.231 362.287C490.279 398.712 469.37 435.179 448.418 471.603" stroke="white" stroke-width="2" stroke-linecap="round" stroke-linejoin="round"/>
<path d="M184.988 331.82C205.259 367.607 225.529 403.35 245.757 439.136" stroke="white" stroke-width="2" stroke-linecap="round" stroke-linejoin="round"/>
<path d="M87.7246 250.799C102.587 277.436 117.449 304.116 132.311 330.797C134.355 334.499 136.357 338.201 138.401 341.945" stroke="white" stroke-width="2" stroke-linecap="round" stroke-linejoin="round"/>
<path d="M507.186 398.754C490.28 428.455 473.416 458.156 456.51 487.858" stroke="white" stroke-width="2" stroke-linecap="round" stroke-linejoin="round"/>
<path d="M401.831 611.342C393.058 627.214 384.413 643.128 375.471 658.915C367.55 672.872 359.288 686.616 351.197 700.446" stroke="white" stroke-width="2" stroke-linecap="round" stroke-linejoin="round"/>
<path d="M352.177 249.822C335.612 279.183 319.089 308.544 302.523 337.905" stroke="white" stroke-width="2" stroke-linecap="round" stroke-linejoin="round"/>
<path d="M347.11 615.387C332.248 641.726 317.386 668.023 302.523 694.363" stroke="white" stroke-width="2" stroke-linecap="round" stroke-linejoin="round"/>
<path d="M507.186 429.135C493.005 453.772 478.824 478.41 464.644 503.048C463.749 504.622 463.281 506.409 462.6 508.111" stroke="white" stroke-width="2" stroke-linecap="round" stroke-linejoin="round"/>
<path d="M335.952 249.822C323.347 270.63 310.018 291.055 300.479 313.608" stroke="white" stroke-width="2" stroke-linecap="round" stroke-linejoin="round"/>
<path d="M253.891 331.82L284.296 386.5" stroke="white" stroke-width="2" stroke-linecap="round" stroke-linejoin="round"/>
<path d="M87.7246 281.184L118.13 335.863" stroke="white" stroke-width="2" stroke-linecap="round" stroke-linejoin="round"/>
<path d="M227.531 285.225C234.941 298.714 242.393 312.203 249.803 325.734" stroke="white" stroke-width="2" stroke-linecap="round" stroke-linejoin="round"/>
<path d="M85.7227 308.545C92.7066 319.523 97.7316 331.736 105.993 341.948" stroke="white" stroke-width="2" stroke-linecap="round" stroke-linejoin="round"/>
<path d="M318.748 248.801C312.019 258.545 308.144 269.949 300.521 279.183" stroke="white" stroke-width="2" stroke-linecap="round" stroke-linejoin="round"/>
<path d="M166.762 299.396C171.489 308.162 176.216 316.928 180.942 325.736" stroke="white" stroke-width="2" stroke-linecap="round" stroke-linejoin="round"/>
<path d="M454.509 550.623C449.782 559.389 445.055 568.154 440.328 576.963" stroke="white" stroke-width="2" stroke-linecap="round" stroke-linejoin="round"/>
<path d="M270.115 390.543C274.842 399.309 279.569 408.075 284.296 416.883" stroke="white" stroke-width="2" stroke-linecap="round" stroke-linejoin="round"/>
<path d="M138.4 250.799C142.446 258.203 146.492 265.649 150.537 273.054" stroke="white" stroke-width="2" stroke-linecap="round" stroke-linejoin="round"/>
</g>
<defs>
<linearGradient id="paint0_linear_105001_31" x1="2.62891" y1="35.2344" x2="2.62891" y2="199.145" gradientUnits="userSpaceOnUse">
<stop stop-color="white"/>
<stop offset="1" stop-color="white" stop-opacity="0"/>
</linearGradient>
<linearGradient id="paint1_linear_105001_31" x1="570.369" y1="35.2344" x2="570.369" y2="613.832" gradientUnits="userSpaceOnUse">
<stop stop-color="white"/>
<stop offset="1" stop-color="white" stop-opacity="0"/>
</linearGradient>
</defs>
</svg>
