<svg width="205" height="37" viewBox="0 0 205 37" fill="none" xmlns="http://www.w3.org/2000/svg">
  <g clip-path="url(#clip0_103079_14)">
  <path d="M36 0.5H0V36.5H36V0.5Z" fill="#CD2C2C"/>
  <path d="M8.40916 30.8677C8.40916 31.384 8.40916 31.8922 8.40916 32.4084C8.40916 32.6467 8.34562 32.8452 8.08355 32.8452C7.82147 32.8452 7.74999 32.6387 7.74999 32.4084C7.74999 31.384 7.74999 30.3595 7.74999 29.335C7.74999 29.1047 7.82941 28.9141 8.09943 28.9141C8.35357 28.9141 8.40122 29.1126 8.40122 29.327C8.40122 29.8432 8.40122 30.3515 8.40122 30.8677H8.40916Z" fill="white"/>
  <path d="M8.40916 25.8111C8.40916 26.3273 8.40916 26.8356 8.40916 27.3518C8.40916 27.59 8.34562 27.7886 8.08355 27.7886C7.82147 27.7886 7.74999 27.5821 7.74999 27.3518C7.74999 26.3273 7.74999 25.3028 7.74999 24.2783C7.74999 24.048 7.82941 23.8574 8.09943 23.8574C8.35357 23.8574 8.40122 24.056 8.40122 24.2704C8.40122 24.7866 8.40122 25.2949 8.40122 25.8111H8.40916Z" fill="white"/>
  <path d="M29.9802 13.1516C29.0907 11.3329 27.7724 9.77633 26.0411 8.46594C24.6989 7.45733 23.2217 6.73464 21.6175 6.29784C20.0133 5.86104 17.7578 5.63867 14.8511 5.63867H4.67773V21.5778H11.46V11.1264H16.5189C18.822 11.1264 20.6963 11.873 22.1496 13.3739C23.6029 14.8749 24.3336 16.8127 24.3336 19.1873C24.3336 21.5619 23.6029 23.5076 22.1496 25.0166C20.6963 26.5255 18.8141 27.272 16.5189 27.272H11.46V32.7598H14.8511C17.6149 32.7598 19.7035 32.6009 21.1172 32.2833C22.5229 31.9656 23.8094 31.4414 24.9769 30.7029C27.0338 29.3845 28.6063 27.7406 29.6863 25.771C30.7744 23.8015 31.3144 21.6096 31.3144 19.1873C31.3144 16.9795 30.8697 14.9623 29.9802 13.1516Z" fill="white"/>
  <path d="M11.4542 20.5126C11.4701 20.9574 11.4701 21.41 11.4542 21.8627C11.4542 22.2519 11.2874 22.4107 10.93 22.4107C10.4535 22.4186 10.4297 22.4187 10.4615 22.9428C10.4774 23.3717 10.3821 23.737 10.1756 24.0864C9.82614 24.69 9.50847 25.3095 9.1908 25.9289C9.04785 26.2148 8.85724 26.3736 8.55546 26.3339C8.34103 26.3022 8.24573 26.3816 8.26161 26.6357C8.28544 26.874 8.26161 27.1043 8.26161 27.3425C8.26161 27.5014 8.19014 27.6126 8.04718 27.6205C7.89629 27.6205 7.82481 27.5014 7.81687 27.3505C7.81687 27.0805 7.81687 26.8104 7.81687 26.5325C7.81687 26.3816 7.76128 26.3022 7.62627 26.3339C7.22124 26.3975 7.01476 26.1592 6.83209 25.7939C6.57002 25.2459 6.28411 24.7059 5.98233 24.1976C5.72025 23.7687 5.60112 23.324 5.64083 22.8078C5.6726 22.4187 5.64083 22.4107 5.27551 22.4107C4.77518 22.4107 4.67194 22.2916 4.67194 21.7357V20.6238C4.67194 20.1076 4.79106 19.9805 5.2358 19.9805H10.938C11.2795 19.9805 11.4463 20.1314 11.4542 20.5126Z" fill="white"/>
  </g>
  <path d="M50.665 20.1147C50.5918 21.1808 50.4697 22.0475 50.2988 22.7148C50.1279 23.374 49.8594 23.9193 49.4932 24.3506V24.4482H56.6831V12.9126H51.1289L50.665 20.1147ZM47.6499 27.5V30.979H44.3052V24.4482H45.5381C46.124 24.0495 46.5391 23.5002 46.7832 22.8003C47.0273 22.0923 47.1901 21.1035 47.2715 19.834L47.8818 9.88525H60.3696V24.4482H62.5669V30.979H59.2344V27.5H47.6499ZM64.4043 9.88525H71.5698C73.3846 9.88525 74.8535 10.4386 75.9766 11.5454C77.1077 12.6522 77.6733 14.1089 77.6733 15.9155C77.6733 17.714 77.0915 19.1707 75.9277 20.2856C74.764 21.3924 73.2503 21.9458 71.3867 21.9458H68.0908V27.5H64.4043V9.88525ZM68.0908 12.8027V19.0649H70.5811C71.639 19.0649 72.4609 18.7923 73.0469 18.2471C73.6328 17.7018 73.9258 16.9287 73.9258 15.9277C73.9258 14.9268 73.6328 14.1577 73.0469 13.6206C72.4691 13.0754 71.6512 12.8027 70.5933 12.8027H68.0908ZM81.708 12.0337C83.238 10.3979 85.3091 9.58008 87.9214 9.58008C90.5337 9.58008 92.6007 10.3979 94.1226 12.0337C95.6525 13.6694 96.4175 15.8911 96.4175 18.6987C96.4175 21.4982 95.6525 23.7158 94.1226 25.3516C92.5926 26.9873 90.5256 27.8052 87.9214 27.8052C85.3091 27.8052 83.238 26.9873 81.708 25.3516C80.1862 23.7158 79.4253 21.4982 79.4253 18.6987C79.4253 15.8911 80.1862 13.6694 81.708 12.0337ZM91.3638 14.292C90.5093 13.2015 89.3618 12.6562 87.9214 12.6562C86.481 12.6562 85.3294 13.2015 84.4668 14.292C83.6123 15.3825 83.1851 16.8514 83.1851 18.6987C83.1851 20.5379 83.6123 22.0028 84.4668 23.0933C85.3213 24.1756 86.4728 24.7168 87.9214 24.7168C89.3618 24.7168 90.5093 24.1756 91.3638 23.0933C92.2183 22.0028 92.6455 20.5379 92.6455 18.6987C92.6455 16.8514 92.2183 15.3825 91.3638 14.292ZM117.444 27.5H114.161V15.6104H114.063L109.278 27.3291H106.958L102.173 15.6104H102.076V27.5H98.792V9.88525H103.064L108.069 22.373H108.167L113.172 9.88525H117.444V27.5ZM122.102 12.0337C123.632 10.3979 125.703 9.58008 128.315 9.58008C130.927 9.58008 132.994 10.3979 134.516 12.0337C136.046 13.6694 136.811 15.8911 136.811 18.6987C136.811 21.4982 136.046 23.7158 134.516 25.3516C132.986 26.9873 130.919 27.8052 128.315 27.8052C125.703 27.8052 123.632 26.9873 122.102 25.3516C120.58 23.7158 119.819 21.4982 119.819 18.6987C119.819 15.8911 120.58 13.6694 122.102 12.0337ZM131.757 14.292C130.903 13.2015 129.755 12.6562 128.315 12.6562C126.875 12.6562 125.723 13.2015 124.86 14.292C124.006 15.3825 123.579 16.8514 123.579 18.6987C123.579 20.5379 124.006 22.0028 124.86 23.0933C125.715 24.1756 126.866 24.7168 128.315 24.7168C129.755 24.7168 130.903 24.1756 131.757 23.0933C132.612 22.0028 133.039 20.5379 133.039 18.6987C133.039 16.8514 132.612 15.3825 131.757 14.292ZM146.229 27.5H142.542V12.9248H137.452V9.88525H151.332V12.9248H146.229V27.5ZM153.364 9.88525H160.53C162.345 9.88525 163.813 10.4386 164.937 11.5454C166.068 12.6522 166.633 14.1089 166.633 15.9155C166.633 17.714 166.051 19.1707 164.888 20.2856C163.724 21.3924 162.21 21.9458 160.347 21.9458H157.051V27.5H153.364V9.88525ZM157.051 12.8027V19.0649H159.541C160.599 19.0649 161.421 18.7923 162.007 18.2471C162.593 17.7018 162.886 16.9287 162.886 15.9277C162.886 14.9268 162.593 14.1577 162.007 13.6206C161.429 13.0754 160.611 12.8027 159.553 12.8027H157.051ZM170.668 12.0337C172.198 10.3979 174.269 9.58008 176.881 9.58008C179.494 9.58008 181.561 10.3979 183.083 12.0337C184.612 13.6694 185.377 15.8911 185.377 18.6987C185.377 21.4982 184.612 23.7158 183.083 25.3516C181.553 26.9873 179.486 27.8052 176.881 27.8052C174.269 27.8052 172.198 26.9873 170.668 25.3516C169.146 23.7158 168.385 21.4982 168.385 18.6987C168.385 15.8911 169.146 13.6694 170.668 12.0337ZM180.324 14.292C179.469 13.2015 178.322 12.6562 176.881 12.6562C175.441 12.6562 174.289 13.2015 173.427 14.292C172.572 15.3825 172.145 16.8514 172.145 18.6987C172.145 20.5379 172.572 22.0028 173.427 23.0933C174.281 24.1756 175.433 24.7168 176.881 24.7168C178.322 24.7168 179.469 24.1756 180.324 23.0933C181.178 22.0028 181.605 20.5379 181.605 18.6987C181.605 16.8514 181.178 15.3825 180.324 14.292ZM203.06 27.5H199.373V20.0781H191.438V27.5H187.752V9.88525H191.438V17.0386H199.373V9.88525H203.06V27.5Z" fill="black"/>
  <defs>
  <clipPath id="clip0_103079_14">
  <rect width="36" height="36" fill="white" transform="translate(0 0.5)"/>
  </clipPath>
  </defs>
</svg>
